<?xml version="1.0" encoding="utf-8"?>
<!-- Generator: Adobe Illustrator 26.0.2, SVG Export Plug-In . SVG Version: 6.00 Build 0)  -->
<svg version="1.1" id="Layer_1" xmlns="http://www.w3.org/2000/svg" xmlns:xlink="http://www.w3.org/1999/xlink" x="0px" y="0px"
	 viewBox="0 0 433.7 242.3" style="enable-background:new 0 0 433.7 242.3;" xml:space="preserve">
<style type="text/css">
	.st0{fill:#E7E2DC;stroke:#000000;stroke-width:1.7528;stroke-miterlimit:10;}
	.st1{fill:#FFFFFF;stroke:#000000;stroke-width:1.0589;stroke-miterlimit:10;}
	.st2{fill:none;stroke:#000000;stroke-width:2.423;stroke-miterlimit:10;}
	.st3{fill:none;stroke:#000000;stroke-width:2.1178;stroke-miterlimit:10;}
	.st4{fill:#393B1A;stroke:#000000;stroke-width:1.7528;stroke-miterlimit:10;}
	.st5{fill:none;stroke:#000000;stroke-width:2.6292;stroke-miterlimit:10;}
	.st6{fill:none;stroke:#000000;stroke-width:1.7528;stroke-miterlimit:10;}
	.st7{fill:#9D9B6C;stroke:#000000;stroke-width:1.7528;stroke-miterlimit:10;}
	.st8{fill:none;stroke:#000000;stroke-width:0.8764;stroke-miterlimit:10;}
	.st9{fill:none;}
	.st10{font-family:'OpenSans-Bold';}
	.st11{font-size:50px;}
</style>
<circle class="st0" cx="111.8" cy="118.4" r="93.2"/>
<g>
	<g>
		<path class="st1" d="M92.4,63.7"/>
		<path class="st2" d="M110.7,74.6l-39.3,24c-1.9,1.1-1.1,4,1.1,4h78.7c2.2,0,3-2.9,1.1-4l-39.3-24
			C112.3,74.2,111.4,74.2,110.7,74.6z"/>
		<path d="M111.8,55.8c-3.1,0-5.6,2.5-6.2,5.8h1.7c0.5-2.2,2.3-3.9,4.5-3.9c2.6,0,4.6,2.4,4.6,5.3s-2.1,5.3-4.6,5.3V70
			c3.5,0,6.3-3.2,6.3-7.1S115.3,55.8,111.8,55.8z"/>
		<line class="st3" x1="111.8" y1="68.2" x2="111.8" y2="74.3"/>
	</g>
	<g>
		<path class="st4" d="M125.7,180.9H98.3c-3.2,0-5.8-2.6-5.8-5.8v-35.8c0-3.2,2.6-5.8,5.8-5.8h27.3c3.2,0,5.8,2.6,5.8,5.8v35.8
			C131.4,178.3,128.8,180.9,125.7,180.9z"/>
		<path class="st4" d="M123.5,133.6h-23.1c-0.4,0-0.7-0.3-0.7-0.7v-5.3c0-0.4,0.3-0.7,0.7-0.7h23.1c0.4,0,0.7,0.3,0.7,0.7v5.3
			C124.2,133.3,123.9,133.6,123.5,133.6z"/>
	</g>
	<line class="st5" x1="111.8" y1="126.9" x2="111.8" y2="101.9"/>
	<path class="st6" d="M111.7,116.3"/>
	<g>
		<path class="st7" d="M112,115.6c0,0-0.3-8.9,12.1-5.8C124.1,109.8,125.5,118.9,112,115.6z"/>
		<line class="st8" x1="112" y1="115.6" x2="124.1" y2="109.8"/>
	</g>
	<g>
		<path class="st7" d="M111.7,118.4c0,0,0.3-8.9-12.1-5.8C99.6,112.5,98.2,121.7,111.7,118.4z"/>
		<line class="st8" x1="111.7" y1="118.4" x2="99.6" y2="112.5"/>
	</g>
</g>
<rect x="214.8" y="96.9" class="st9" width="200.3" height="42.9"/>
<text transform="matrix(1 0 0 1 216.9649 134.9223)" class="st10 st11">Revived</text>
</svg>
