<?xml version="1.0" encoding="utf-8"?>
<!-- Generator: Adobe Illustrator 26.0.2, SVG Export Plug-In . SVG Version: 6.00 Build 0)  -->
<svg version="1.1" id="Layer_1" xmlns="http://www.w3.org/2000/svg" xmlns:xlink="http://www.w3.org/1999/xlink" x="0px" y="0px"
	 viewBox="0 0 360 360" style="enable-background:new 0 0 360 360;" xml:space="preserve">
<style type="text/css">
	.st0{fill:#E7E2DC;stroke:#000000;stroke-width:2.1034;stroke-miterlimit:10;}
	.st1{fill:none;stroke:#000000;stroke-width:2.1034;stroke-miterlimit:10;}
	.st2{fill:#393B1A;stroke:#000000;stroke-width:2.1034;stroke-miterlimit:10;}
	.st3{fill:none;stroke:#000000;stroke-width:3.155;stroke-miterlimit:10;}
	.st4{fill:#9D9B6C;stroke:#000000;stroke-width:2.1034;stroke-miterlimit:10;}
	.st5{fill:none;stroke:#000000;stroke-width:1.0517;stroke-miterlimit:10;}
	.st6{fill:none;}
	.st7{font-family:'OpenSans-Bold';}
	.st8{font-size:60px;}
</style>
<circle class="st0" cx="180.5" cy="130.9" r="111.8"/>
<g>
	<g>
		<path class="st0" d="M157.1,65.3"/>
		<path class="st1" d="M179.1,78.5l-47.2,28.8c-2.3,1.3-1.3,4.8,1.3,4.8h94.4c2.6,0,3.6-3.5,1.3-4.8l-47.2-28.8
			C181,77.9,179.9,77.9,179.1,78.5z"/>
		<path class="st0" d="M180.4,55.8c-3.7,0-6.7,3-7.4,7h2c0.6-2.6,2.8-4.7,5.4-4.7c3.1,0,5.5,2.9,5.5,6.4s-2.5,6.4-5.5,6.4v2.3
			c4.2,0,7.6-3.8,7.6-8.5C187.9,59.9,184.6,55.8,180.4,55.8z"/>
		<line class="st1" x1="180.5" y1="70.7" x2="180.5" y2="78.1"/>
	</g>
	<g>
		<path class="st2" d="M197.1,205.9h-32.8c-3.8,0-7-3.1-7-7v-43c0-3.8,3.1-7,7-7h32.8c3.8,0,7,3.1,7,7v43
			C203.9,202.9,200.8,205.9,197.1,205.9z"/>
		<path class="st2" d="M194.4,149.1h-27.7c-0.5,0-0.8-0.4-0.8-0.8v-6.4c0-0.5,0.4-0.8,0.8-0.8h27.7c0.5,0,0.8,0.4,0.8,0.8v6.4
			C195.4,148.8,194.9,149.1,194.4,149.1z"/>
	</g>
	<line class="st3" x1="180.5" y1="141.1" x2="180.5" y2="111.1"/>
	<path class="st1" d="M180.3,128.5"/>
	<g>
		<path class="st4" d="M180.6,127.7c0,0-0.4-10.7,14.5-7C195.1,120.6,196.8,131.6,180.6,127.7z"/>
		<line class="st5" x1="180.6" y1="127.7" x2="195.1" y2="120.6"/>
	</g>
	<g>
		<path class="st4" d="M180.3,130.9c0,0,0.4-10.7-14.5-7C165.8,123.9,164.1,134.9,180.3,130.9z"/>
		<line class="st5" x1="180.3" y1="130.9" x2="165.8" y2="123.9"/>
	</g>
</g>
<rect x="60.3" y="270.4" class="st6" width="240.4" height="51.5"/>
<text transform="matrix(1 0 0 1 62.9316 315.9727)" class="st7 st8">Revived</text>
</svg>
